<svg xmlns="http://www.w3.org/2000/svg" width="744" height="713" viewBox="0 0 744 713"><defs><radialGradient id="gradient-11" cx="580.2" cy="210.1" r="56.416" gradientTransform="rotate(56.036 1703.672 -563.09)scale(2.9719 3.76668)" gradientUnits="userSpaceOnUse"><stop offset="0" style="stop-color:rgb(88.235% 68.627% 28.235%/.886)"/><stop offset="1" style="stop-color:rgb(54.316% 38.47% 0%/.886)"/></radialGradient></defs><path fill-rule="evenodd" d="M383.958 42.75C364.79 91.582 350 131.363 350 134.086c0 2.186.786 2.282 7.795.953 2.788-.529 11.045-1.469 18.35-2.089 13.822-1.173 30.828-.288 46.601 2.426 3.986.686 7.785.914 8.443.507.864-.534-.924-6.518-6.445-21.561A23580 23580 0 0 1 407.999 68.5C393.673 29.16 392.811 27 391.438 27c-.746 0-3.924 6.691-7.48 15.75m-133.658 25c.83 4.15 8.257 53.307 12.543 83.016 2.084 14.446 4.26 26.737 4.836 27.313.73.73 2.984-.647 7.434-4.543 13.549-11.862 34.655-24.068 52.898-30.594 6.864-2.456 8.989-3.647 8.989-5.042 0-1.146-6.804-7.504-18.25-17.056-32.474-27.1-56.14-47.104-60.957-51.524-5.578-5.119-8.318-5.693-7.493-1.57m267.2 10.418c-10.479 8.731-34.131 27.774-65.307 52.582-5.119 4.073-9.14 7.908-8.936 8.522s6.243 3.661 13.419 6.771c18.501 8.019 34.091 17.722 48.402 30.123 5.717 4.955 7.65 5.777 8.429 3.584 1.152-3.241 18.49-109.315 18.054-110.452-.274-.714-.85-1.26-1.28-1.213-.429.047-6.181 4.584-12.781 10.083m-146.504 64.825c-34.122 3.952-63.833 16.69-90.186 38.666-16.417 13.691-29.281 29.731-38.768 48.338-20.198 39.617-23.602 80.49-10.086 121.092 15.169 45.566 51.668 81.872 98.797 98.277 11.947 4.158 28.704 7.906 33.341 7.455l3.311-.321-.156-17-.157-17-2.796-.692c-15.956-3.951-24.558-5.764-25.265-5.327-.468.289-2.543 4.799-4.61 10.022-3.23 8.162-4.083 9.497-6.064 9.497-2.946 0-26.849-12.077-31.134-15.73l-3.249-2.77 6.039-9.499c3.32-5.225 5.914-9.952 5.762-10.505-.151-.553-4.426-4.994-9.499-9.868-6.195-5.952-9.731-8.667-10.77-8.269-.851.327-5.136 3.376-9.522 6.776-7.726 5.988-8.037 6.127-9.933 4.412-4.92-4.453-20.051-29.722-20.051-33.486 0-.62 4.215-3.083 9.367-5.474s9.704-4.893 10.116-5.559c.711-1.152-4.814-26.862-6.453-30.028-.637-1.23-2.754-1.435-11.757-1.141l-10.98.358-.646-3.233c-1.497-7.485.233-33.236 2.379-35.401.55-.556 5.079-.203 11.494.897 6.17 1.057 10.91 1.44 11.363.917 1.561-1.801 9.188-26.726 8.414-27.498-.438-.438-5.008-2.86-10.154-5.383-7.973-3.909-9.279-4.887-8.828-6.614 1.652-6.317 17.819-30.106 20.861-30.696.834-.161 5.163 2.651 9.621 6.25 4.457 3.599 8.394 6.544 8.747 6.544.869 0 16.76-14.802 17.713-16.5.482-.858-1.459-4.66-5.34-10.463-5.182-7.747-5.902-9.35-4.8-10.678 3.526-4.249 29.572-18.076 32.171-17.079.745.286 2.859 4.053 4.697 8.37 1.838 4.318 4.064 8.634 4.948 9.592 1.525 1.653 1.864 1.643 6.743-.211 2.825-1.073 9.503-2.844 14.839-3.934s9.992-2.276 10.344-2.636c.353-.359.641-5.672.641-11.807V154.5l7-.767c8.855-.971 28.137.097 29.315 1.624.51.661.485 5.298-.06 11-.592 6.201-.589 10.209.007 10.805.521.521 3.825 1.603 7.343 2.405s10.523 2.863 15.568 4.581 9.868 2.858 10.718 2.532 3.589-4.662 6.087-9.636 5.046-9.044 5.661-9.044c4.191 0 31.869 17.591 31.854 20.245-.004.69-2.701 4.63-5.993 8.755s-5.989 8.433-5.993 9.573c-.007 2.02 15.733 18.457 17.621 18.401.48-.014 4.437-2.714 8.794-6s8.48-5.974 9.161-5.974c2.689 0 13.599 16.509 19.476 29.471L531.02 249h11.23l-.583-2.916c-.981-4.902-9.186-21.078-15.514-30.584-24.846-37.325-64.567-63.139-109.153-70.937-11.255-1.969-35.439-2.794-46.004-1.57" style="fill:#b78918"/><path fill-rule="evenodd" d="M383.25 161.662c-.829.335-1.25 2.812-1.25 7.362 0 4.397.449 7.143 1.25 7.651 1.425.904 11.897.488 12.934-.514.376-.364.82-3.493.987-6.955.229-4.731-.065-6.528-1.183-7.235-1.543-.975-10.545-1.194-12.738-.309m-233.889 8.836c.316.824 15.777 19.478 34.357 41.454 24.501 28.978 34.303 39.899 35.68 39.752 1.384-.149 2.894-2.637 5.584-9.204 7.433-18.148 15.03-30.924 27.872-46.875 7.165-8.899 7.842-10.077 6.332-11.01-.447-.276-13.609-2.306-29.25-4.51a9064 9064 0 0 1-52.375-7.556c-27.362-4.056-29.016-4.177-28.2-2.051" style="fill:#b78918"/><path fill-rule="evenodd" d="M625.151 173.179c-9.326 1.452-90.339 11.748-97.897 12.442-10.23.939-10.579 1.877-3.713 9.97 12.575 14.824 24.176 34.915 30.117 52.159 1.88 5.456 3.356 8.249 4.359 8.25.834 0 7.584-6.822 15-15.161s23.158-25.933 34.983-39.1c11.825-13.166 22.131-24.815 22.903-25.886 2.043-2.835.347-3.623-5.752-2.674" style="fill:url(#gradient-11)"/><path fill-rule="evenodd" d="M316.934 180.472c-7.463 3.889-7.827 4.804-4.465 11.226 1.583 3.024 3.5 5.737 4.26 6.028 1.495.574 6.814-1.993 10.937-5.278l2.576-2.053-2.237-4.447c-2.296-4.563-4.855-7.984-5.91-7.901-.327.025-2.65 1.117-5.161 2.425m139.268 2.278c-3.994 5.681-5.4 9.306-4.18 10.777 1.547 1.863 9.503 6.473 11.172 6.473 1.773 0 8.025-9.624 7.62-11.729-.278-1.441-10.166-8.256-11.996-8.267-.375-.002-1.552 1.234-2.616 2.746m-86.702 4.74c-33.382 5.862-63.226 25.288-82.207 53.51-7.826 11.635-15.27 31.314-17.361 45.895-.733 5.105-.99 13.532-.658 21.5 1.125 26.994 11.819 50.904 31.563 70.57 9.99 9.95 18.503 16.257 29.73 22.025 9.276 4.765 25.412 10.031 31.603 10.313l4.33.197.5-21.5c.275-11.825.107-22.062-.372-22.75-.659-.943-6.98-1.25-25.75-1.25-20.426 0-24.878-.246-24.878-1.373 0-1.39 22.998-29.239 55.039-66.649 9.647-11.263 23.022-27.062 29.722-35.11s12.957-14.93 13.904-15.293 18.558-.6 39.136-.526c21.924.079 37.801-.251 38.346-.796 2.141-2.141-16.448-24.1-28.316-33.448-15.234-11.999-28.126-18.344-47.831-23.541-11.887-3.134-33.956-3.976-46.5-1.774m-103.022 39.845c-4.047 6.096-3.881 7.447 1.347 10.981 6.801 4.597 7.7 4.465 11.649-1.709 1.94-3.031 3.526-6.175 3.526-6.986 0-1.435-9.627-7.621-11.862-7.621-.614 0-2.712 2.401-4.66 5.335m235.772 2.771c-3.028 1.764-5.246 3.765-5.241 4.727.014 2.449 5.824 12.167 7.275 12.167 2.045 0 11.716-6.945 11.716-8.414 0-1.673-6.12-10.854-7.5-11.251-.55-.159-3.363 1.088-6.25 2.771" style="fill:#b78918"/><path fill-rule="evenodd" d="M418.394 259.416c-.39 1.017.801 3.339 3.245 6.327l20.645 25.239c9.231 11.285 18.062 21.987 19.624 23.784l2.84 3.265 8.447-.649c25.263-1.942 41.268 9.057 42.588 29.267.916 14.025-4.907 24.824-16.452 30.511l-6.781 3.34-21.775.335-21.775.334v28.216c0 20.612.323 28.538 1.2 29.415 2.862 2.862 46.698.8 59.621-2.805 29.833-8.32 53.65-33.027 62.2-64.525 3.069-11.308 3.734-29.191 1.522-40.97-4.132-22.009-15.891-41.078-33.524-54.365-9.936-7.487-18.295-11.521-30.798-14.864-9.541-2.551-10.466-2.607-49.966-3.03-36.283-.388-40.306-.273-40.861 1.175" style="fill:silver"/><path fill-rule="evenodd" d="M209 264.161c-2.974 1.23-30.528 11.112-70.448 25.264-15.921 5.644-29.115 10.763-29.319 11.376-.476 1.427-1.021 1.206 52.737 21.293 25.042 9.357 47.137 17.627 49.1 18.379 6.19 2.37 6.53 1.389 4.388-12.638-2.4-15.712-2.454-38.615-.122-51.585 2.289-12.724 2.244-13.263-1.086-13.187-1.512.035-3.875.529-5.25 1.098" style="fill:#b78918"/><path fill-rule="evenodd" d="M404.876 275.75c-12.451 13.229-63.838 75.594-63.858 77.5-.016 1.602 1.496 1.75 17.923 1.75 13.257 0 18.151.326 18.745 1.25.442.688.896 48.95 1.01 107.25s.229 106.337.256 106.75c.169 2.619 4.955-1.613 23.184-20.5 11.281-11.687 23.965-24.952 28.187-29.478l7.677-8.227V355h19.5c15.664 0 19.5-.264 19.5-1.344 0-.74-2.201-3.86-4.891-6.934s-17.558-21.144-33.04-40.156C423.586 287.555 410.353 272 409.662 272s-2.844 1.688-4.786 3.75" style="fill:silver"/><path fill-rule="evenodd" d="M244.607 289.582c-.866 2.258-.752 13.216.143 13.734.412.239 3.28.741 6.373 1.115 7.462.904 8.877-.445 8.877-8.467 0-7.029-1.095-7.964-9.327-7.964-4.055 0-5.615.407-6.066 1.582m-61.205 102.81c-18.646 22.814-33.902 42.071-33.902 42.794 0 .814.951 1.201 2.5 1.017 9.89-1.174 105.125-16.162 105.954-16.675 1.932-1.193 1.074-2.99-4.932-10.339-12.523-15.322-21.595-30.529-29.043-48.689-2.035-4.96-4.361-9.132-5.184-9.294-.928-.183-14.283 15.357-35.393 41.186m81.848-33.286c-2.887 1.682-5.25 3.755-5.25 4.605 0 2.774 6.067 12.29 7.823 12.27 2.929-.033 11.177-5.841 11.177-7.87 0-2.062-5.892-11.313-7.5-11.776-.55-.159-3.363 1.088-6.25 2.771m48.973 47.659c-1.04 1.504-2.638 4.649-3.55 6.988l-1.659 4.252 4.743 2.979c7.237 4.544 8.795 4.144 12.243-3.148 1.603-3.39 2.677-6.55 2.385-7.022s-3.172-2.192-6.4-3.822l-5.87-2.963zm-48.692 19.485c-.224.688-.897 5.3-1.496 10.25-2.609 21.553-12.727 93.426-13.697 97.29-.4 1.594-.228 2.336.485 2.09 1.555-.535 18.325-14.655 48.553-40.88 14.263-12.375 28.001-24.24 30.529-26.367 2.527-2.126 4.595-4.539 4.595-5.361 0-.974-3.132-2.627-9-4.749-17.099-6.182-39.022-18.569-51.982-29.371-5.142-4.286-7.284-5.064-7.987-2.902" style="fill:#b78918"/><path fill-rule="evenodd" d="M345.596 465.845c-.288.465 3.676 13.178 8.808 28.25 6.561 19.27 9.806 27.499 10.931 27.722 1.428.283 1.63-2.503 1.882-26 .156-14.474.058-26.627-.217-27.006-.275-.378-4.883-1.391-10.239-2.25-11.447-1.835-10.511-1.775-11.165-.716" style="fill:rgba(210,148,19,.965)"/></svg>